<?xml version="1.0" encoding="iso-8859-1"?>
<!-- Generator: Adobe Illustrator 19.0.0, SVG Export Plug-In . SVG Version: 6.00 Build 0)  -->
<svg version="1.1" id="Capa_1" xmlns="http://www.w3.org/2000/svg" xmlns:xlink="http://www.w3.org/1999/xlink" x="0px" y="0px"
	 viewBox="0 0 512 512" style="enable-background:new 0 0 512 512;" xml:space="preserve">
<g>
	<g transform="translate(1 1)">
		<path style="fill:#607D8B;" d="M383,58.733v204.8c0,28.245-57.344,51.2-128,51.2c-4.267,0-8.448-0.085-12.544-0.256h-0.512
			C177.432,311.832,127,289.987,127,263.533v-204.8H383z"/>
		<path style="fill:#CFD8DC;" d="M357.4,58.733v204.8c0,26.453-50.432,48.299-114.944,50.944h-0.512
			C177.432,311.832,127,289.987,127,263.533v-204.8H357.4z"/>
		<path style="fill:#F44335;" d="M314.392,229.565c2.708,3.487,4.174,7.779,4.167,12.194c-0.007,9.85-7.173,18.234-16.902,19.774
			c-0.093,0.5-0.211,0.995-0.353,1.483c-0.056,0.288-0.135,0.572-0.235,0.848c-0.165,0.601-0.369,1.191-0.612,1.766
			c-0.167,0.46-0.363,0.908-0.589,1.342c-0.09,0.244-0.201,0.48-0.33,0.706c-0.157,0.349-0.338,0.688-0.541,1.012
			c-0.094,0.188-0.212,0.377-0.33,0.565c-0.391,0.649-0.815,1.278-1.271,1.883c-0.282,0.377-0.565,0.73-0.847,1.083
			c-1.163,1.379-2.483,2.62-3.931,3.696c-0.306,0.235-0.612,0.447-0.918,0.659c-0.945,0.638-1.937,1.204-2.966,1.695
			c-0.66,0.324-1.336,0.615-2.025,0.871c-0.447,0.165-0.894,0.306-1.342,0.447c-0.306,0.094-0.636,0.188-0.942,0.259
			c-0.759,0.204-1.529,0.361-2.307,0.471c-0.283,0.047-0.589,0.094-0.895,0.118c-0.89,0.115-1.786,0.17-2.683,0.165
			c-12.999-0.005-23.535-10.541-23.54-23.54c-0.005,12.999-10.541,23.535-23.54,23.54c-0.897,0.005-1.794-0.05-2.684-0.165
			c-0.306-0.024-0.612-0.071-0.895-0.118c-0.778-0.109-1.548-0.267-2.307-0.471c-0.306-0.071-0.636-0.165-0.942-0.259
			c-0.447-0.141-0.895-0.282-1.342-0.447c-0.689-0.256-1.365-0.547-2.025-0.871c-1.029-0.491-2.021-1.057-2.966-1.695
			c-0.306-0.212-0.612-0.424-0.918-0.659c-1.449-1.076-2.768-2.316-3.931-3.696c-0.282-0.353-0.565-0.706-0.847-1.083
			c-0.456-0.605-0.88-1.234-1.271-1.883c-0.118-0.188-0.235-0.377-0.33-0.565c-0.203-0.325-0.384-0.663-0.541-1.012
			c-0.129-0.226-0.239-0.462-0.33-0.706c-0.226-0.434-0.422-0.882-0.589-1.342c-0.243-0.574-0.447-1.164-0.612-1.766
			c-0.1-0.276-0.179-0.559-0.235-0.848c-0.143-0.488-0.26-0.983-0.353-1.483c-9.729-1.54-16.895-9.924-16.902-19.774
			c-0.008-4.415,1.459-8.707,4.167-12.194c-6.068-4.332-9.412-11.536-8.804-18.968c0.608-7.431,5.078-13.996,11.77-17.284
			c-1.599-2.812-2.435-5.993-2.425-9.228c-0.001-4.995,1.982-9.786,5.514-13.318c3.532-3.532,8.323-5.516,13.318-5.514h0.024
			c-0.024-0.4-0.024-0.777-0.024-1.177c0-11.051,8.958-20.009,20.009-20.009s20.009,8.958,20.009,20.009
			c0-11.051,8.958-20.009,20.009-20.009s20.009,8.958,20.009,20.009c0,0.4,0,0.777-0.024,1.177h0.024
			c4.995-0.001,9.786,1.982,13.318,5.514c3.532,3.532,5.516,8.323,5.514,13.318c0.011,3.235-0.825,6.416-2.425,9.228
			c6.692,3.288,11.163,9.853,11.771,17.284C323.804,218.028,320.461,225.232,314.392,229.565z"/>
		<path style="fill:#607D8B;" d="M383,58.733c0,28.245-57.344,51.2-128,51.2c-4.267,0-8.448-0.085-12.544-0.256h-0.512
			C177.432,107.032,127,85.187,127,58.733s50.432-48.299,114.944-50.944h0.512c4.096-0.171,8.277-0.256,12.544-0.256
			C325.656,7.533,383,30.488,383,58.733z"/>
		<path style="fill:#CFD8DC;" d="M357.4,58.733c0,26.453-50.432,48.299-114.944,50.944h-0.512
			C177.432,107.032,127,85.187,127,58.733s50.432-48.299,114.944-50.944h0.512C306.968,10.435,357.4,32.28,357.4,58.733z"/>
		<path style="fill:#3F5C6C;" d="M314.733,425.667c0,8.704-10.069,16.384-25.6,20.992c-11.099,3.162-22.594,4.714-34.133,4.608
			c-4.274,0.022-8.547-0.178-12.8-0.597h-0.085c-26.88-2.475-46.848-12.715-46.848-25.003s20.053-22.528,46.933-25.003
			c4.253-0.42,8.526-0.619,12.8-0.597C288.024,400.067,314.733,411.501,314.733,425.667z"/>
		<path style="fill:#CFD8DC;" d="M289.133,425.667c0,8.704-10.069,16.384-25.6,20.992c-6.968,2.01-14.111,3.353-21.333,4.011h-0.085
			c-26.88-2.475-46.848-12.715-46.848-25.003s20.053-22.528,46.933-25.003C269.08,403.139,289.133,413.379,289.133,425.667z"/>
		<path style="fill:#3F5C6C;" d="M502.467,425.667c0,8.704-10.069,16.384-25.6,20.992c-11.099,3.162-22.594,4.714-34.133,4.608
			c-4.274,0.022-8.547-0.178-12.8-0.597h-0.085C402.968,448.195,383,437.955,383,425.667s20.053-22.528,46.933-25.003
			c4.253-0.42,8.526-0.619,12.8-0.597C475.757,400.067,502.467,411.501,502.467,425.667z"/>
		<path style="fill:#CFD8DC;" d="M476.867,425.667c0,8.704-10.069,16.384-25.6,20.992c-6.968,2.01-14.111,3.353-21.333,4.011h-0.085
			C402.968,448.195,383,437.955,383,425.667s20.053-22.528,46.933-25.003C456.813,403.139,476.867,413.379,476.867,425.667z"/>
		<path style="fill:#3F5C6C;" d="M127,425.667c0,8.704-10.069,16.384-25.6,20.992c-11.099,3.162-22.594,4.714-34.133,4.608
			c-4.274,0.022-8.546-0.178-12.8-0.597h-0.085c-26.88-2.475-46.848-12.715-46.848-25.003s20.053-22.528,46.933-25.003
			c4.253-0.42,8.526-0.619,12.8-0.597C100.291,400.067,127,411.501,127,425.667z"/>
		<path style="fill:#CFD8DC;" d="M101.4,425.667c0,8.704-10.069,16.384-25.6,20.992c-6.968,2.01-14.111,3.353-21.333,4.011h-0.085
			c-26.88-2.475-46.848-12.715-46.848-25.003s20.053-22.528,46.933-25.003C81.347,403.139,101.4,413.379,101.4,425.667z"/>
		<path style="fill:#3F5C6C;" d="M314.733,425.667v51.2c0,14.165-26.709,25.6-59.733,25.6c-4.274,0.022-8.547-0.178-12.8-0.597
			c-26.88-2.475-46.933-12.715-46.933-25.003v-51.2c0,12.288,20.053,22.528,46.933,25.003c4.253,0.42,8.526,0.619,12.8,0.597
			c11.54,0.106,23.035-1.446,34.133-4.608C304.664,442.051,314.733,434.371,314.733,425.667z"/>
		<g>
			<path style="fill:#607D8B;" d="M127,425.667v51.2c0,14.165-26.709,25.6-59.733,25.6c-4.274,0.022-8.546-0.178-12.8-0.597
				c-26.88-2.475-46.933-12.715-46.933-25.003v-51.2c0,12.288,20.053,22.528,46.933,25.003c4.254,0.42,8.526,0.619,12.8,0.597
				c11.54,0.106,23.035-1.446,34.133-4.608C116.931,442.051,127,434.371,127,425.667z"/>
			<path style="fill:#607D8B;" d="M314.733,425.667v51.2c0,14.165-26.709,25.6-59.733,25.6c-4.274,0.022-8.547-0.178-12.8-0.597
				c-26.88-2.475-46.933-12.715-46.933-25.003v-51.2c0,12.288,20.053,22.528,46.933,25.003c4.253,0.42,8.526,0.619,12.8,0.597
				c11.54,0.106,23.035-1.446,34.133-4.608C304.664,442.051,314.733,434.371,314.733,425.667z"/>
			<path style="fill:#607D8B;" d="M502.467,425.667v51.2c0,14.165-26.709,25.6-59.733,25.6c-4.274,0.022-8.547-0.178-12.8-0.597
				C403.053,499.395,383,489.155,383,476.867v-51.2c0,12.288,20.053,22.528,46.933,25.003c4.254,0.42,8.526,0.619,12.8,0.597
				c11.54,0.106,23.035-1.446,34.133-4.608C492.397,442.051,502.467,434.371,502.467,425.667z"/>
		</g>
		<g>
			<path style="fill:#CFD8DC;" d="M101.4,446.659v30.208c0,12.288-20.053,22.528-46.933,25.003
				c-26.88-2.475-46.933-12.715-46.933-25.003v-30.208c11.099,3.162,22.594,4.714,34.133,4.608c4.274,0.022,8.546-0.178,12.8-0.597
				c4.254,0.42,8.526,0.619,12.8,0.597C78.806,451.373,90.301,449.821,101.4,446.659z"/>
			<path style="fill:#CFD8DC;" d="M289.133,446.659v30.208c0,12.288-20.053,22.528-46.933,25.003
				c-26.88-2.475-46.933-12.715-46.933-25.003v-30.208c11.099,3.162,22.594,4.714,34.133,4.608c4.274,0.022,8.547-0.178,12.8-0.597
				c4.253,0.42,8.526,0.619,12.8,0.597C266.54,451.373,278.035,449.821,289.133,446.659z"/>
			<path style="fill:#CFD8DC;" d="M476.867,446.659v30.208c0,12.288-20.053,22.528-46.933,25.003
				C403.053,499.395,383,489.155,383,476.867v-30.208c11.099,3.162,22.594,4.714,34.133,4.608c4.274,0.022,8.546-0.178,12.8-0.597
				c4.254,0.42,8.526,0.619,12.8,0.597C454.273,451.373,465.768,449.821,476.867,446.659z"/>
		</g>
	</g>
	<g>
		<path d="M279.542,290.133c1.089,0.014,2.178-0.049,3.258-0.188c0.531-0.037,1.059-0.101,1.583-0.192
			c0.995-0.136,1.98-0.334,2.95-0.592c0.517-0.117,1.058-0.267,1.592-0.438l1.8-0.6c0.919-0.341,1.82-0.729,2.7-1.163
			c1.429-0.685,2.805-1.474,4.117-2.363l1.167-0.833c2.031-1.521,3.88-3.271,5.508-5.217l1.008-1.283
			c0.713-0.97,1.375-1.977,1.983-3.017c0.392-0.625,0.745-1.274,1.058-1.942l-0.009-0.004c0.1-0.2,0.192-0.408,0.283-0.604
			c0.301-0.592,0.571-1.2,0.808-1.821l0.133-0.341c7.213-2.679,13.039-8.156,16.158-15.189c3.119-7.034,3.266-15.029,0.409-22.173
			c10.158-12.374,8.692-30.57-3.317-41.158c3.107-14-5.121-28.025-18.859-32.142c-2.251-10.128-9.822-18.235-19.772-21.173
			c-9.95-2.938-20.711-0.244-28.102,7.036c-7.39-7.28-18.149-9.974-28.097-7.036c-9.949,2.937-17.519,11.044-19.769,21.17
			c-13.742,4.115-21.974,18.142-18.867,32.146c-12.008,10.588-13.475,28.784-3.317,41.158c-2.858,7.144-2.71,15.139,0.409,22.173
			s8.945,12.511,16.158,15.19l0.033,0.079c0.262,0.701,0.56,1.388,0.892,2.058c0.092,0.2,0.2,0.421,0.3,0.629l-0.009,0.004
			c0.217,0.479,0.462,0.945,0.733,1.396c0.075,0.142,0.492,0.846,0.575,0.979c0.55,0.905,1.133,1.775,1.75,2.6l1.15,1.454
			c1.569,1.856,3.345,3.528,5.292,4.983l1.308,0.933c1.247,0.843,2.553,1.595,3.908,2.25c0.958,0.472,1.94,0.894,2.942,1.263
			l1.708,0.571c0.508,0.158,1.05,0.308,1.15,0.317c1.087,0.301,2.192,0.532,3.308,0.692c0.542,0.087,1.042,0.137,1.05,0.142
			c1.276,0.169,2.563,0.251,3.85,0.245c8.943,0.002,17.48-3.737,23.542-10.313C262.062,286.396,270.598,290.136,279.542,290.133z
			 M247.467,258.058c-0.01,8.285-6.724,14.999-15.008,15.008c-0.773-0.005-1.545-0.068-2.308-0.188
			c-0.662-0.1-1.316-0.243-1.958-0.429l-0.883-0.292c-0.46-0.17-0.91-0.363-1.35-0.579c-0.87-0.431-1.701-0.937-2.483-1.512
			c-0.865-0.635-1.656-1.364-2.358-2.175l-0.692-0.883c-0.323-0.428-0.621-0.875-0.892-1.338c-0.1-0.188-0.341-0.642-0.458-0.821
			c-0.108-0.275-0.4-0.946-0.542-1.208c-0.033-0.088-0.358-0.8-0.392-0.883c-0.058-0.367-0.3-1.358-0.4-1.717
			c-0.635-3.586-3.477-6.373-7.075-6.938c-5.595-0.859-9.718-5.685-9.691-11.346c-0.015-2.517,0.819-4.965,2.367-6.95
			c1.425-1.834,2.042-4.169,1.709-6.468s-1.588-4.362-3.475-5.716c-3.63-2.586-5.63-6.892-5.266-11.333
			c0.364-4.442,3.039-8.364,7.041-10.325c2.11-1.042,3.696-2.909,4.384-5.159s0.416-4.685-0.75-6.728
			c-0.863-1.523-1.312-3.245-1.3-4.996c0.008-5.694,4.631-10.304,10.325-10.296c2.394-0.122,4.637-1.209,6.217-3.012
			c1.618-1.843,2.442-4.252,2.292-6.7c-0.011-4.107,2.173-7.907,5.728-9.964c3.555-2.057,7.938-2.057,11.493,0
			c3.555,2.057,5.74,5.857,5.728,9.964c0,4.713,3.821,8.533,8.533,8.533s8.533-3.82,8.533-8.533
			c0.007-6.334,5.14-11.467,11.475-11.475c3.143,0.042,6.135,1.354,8.295,3.637c2.16,2.283,3.304,5.343,3.172,8.484
			c-0.142,2.354,0.695,4.662,2.312,6.379s3.872,2.689,6.23,2.688c5.685,0.003,10.294,4.61,10.3,10.296
			c0.012,1.75-0.437,3.473-1.3,4.996c-1.167,2.044-1.438,4.478-0.75,6.728c0.688,2.25,2.274,4.117,4.384,5.159
			c4.002,1.961,6.677,5.883,7.041,10.325c0.364,4.442-1.637,8.747-5.266,11.333c-1.887,1.354-3.142,3.417-3.475,5.716
			s0.284,4.634,1.709,6.468c1.548,1.985,2.382,4.433,2.367,6.95c0.026,5.661-4.096,10.487-9.692,11.346
			c-3.821,1.064-6.692,4.227-7.383,8.133c-0.042,0.125-0.35,1.012-0.383,1.142l-0.317,0.867c-0.158,0.258-0.3,0.525-0.433,0.796
			l7.45,4.192l-7.891-3.408c-0.241,0.402-0.502,0.792-0.783,1.167l-0.55,0.712c-0.913,1.056-1.955,1.993-3.1,2.792
			c-0.647,0.429-1.323,0.81-2.025,1.142c-0.4,0.2-0.817,0.367-1.108,0.479l-1.708,0.521c-0.672,0.158-1.354,0.272-2.042,0.341
			c-0.503,0.065-1.01,0.095-1.517,0.088c-8.285-0.01-14.999-6.724-15.008-15.008c0-4.713-3.821-8.533-8.533-8.533
			C251.287,249.525,247.467,253.346,247.467,258.058z"/>
		<path d="M68.267,512c33.925,0,68.267-11.725,68.267-34.133v-51.2c0-20.525-28.82-32.057-59.733-33.855v-17.345
			c0.005-4.711,3.822-8.529,8.533-8.533h162.133v25.878c-30.914,1.799-59.733,13.33-59.733,33.855v51.2
			C187.733,500.275,222.075,512,256,512s68.267-11.725,68.267-34.133v-51.2c0-20.525-28.82-32.057-59.733-33.855v-25.878h162.133
			c4.711,0.005,8.529,3.822,8.533,8.533v17.345c-30.914,1.799-59.733,13.33-59.733,33.855v51.2
			c0,22.409,34.342,34.133,68.267,34.133S512,500.275,512,477.867v-51.2c0-20.525-28.82-32.057-59.733-33.855v-17.345
			c-0.015-14.132-11.468-25.585-25.6-25.6H264.533V324.09c73.521-1.814,128-26.767,128-59.557v-204.8
			C392.533,25.679,333.833,0,256,0S119.467,25.679,119.467,59.733v204.8c0,32.79,54.479,57.743,128,59.557v25.777H85.333
			c-14.132,0.015-25.585,11.468-25.6,25.6v17.345C28.82,394.61,0,406.141,0,426.667v51.2C0,500.275,34.342,512,68.267,512z
			 M256,494.933c-31.758,0-51.2-11.05-51.2-17.067v-27.883c15.98,7.578,33.521,11.283,51.2,10.817
			c17.679,0.467,35.22-3.239,51.2-10.817v27.883C307.2,483.883,287.758,494.933,256,494.933z M307.2,426.667
			c0,6.017-19.442,17.067-51.2,17.067c-31.758,0-51.2-11.05-51.2-17.067S224.242,409.6,256,409.6
			C287.758,409.6,307.2,420.65,307.2,426.667z M443.733,494.933c-31.758,0-51.2-11.05-51.2-17.067v-27.883
			c15.98,7.578,33.521,11.283,51.2,10.817c17.679,0.467,35.22-3.239,51.2-10.817v27.883
			C494.933,483.883,475.492,494.933,443.733,494.933z M494.933,426.667c0,6.017-19.442,17.067-51.2,17.067s-51.2-11.05-51.2-17.067
			s19.442-17.067,51.2-17.067S494.933,420.65,494.933,426.667z M256,17.067c70.4,0,119.467,22.487,119.467,42.667
			S326.4,102.4,256,102.4S136.533,79.913,136.533,59.733S185.6,17.067,256,17.067z M136.533,264.533v-38.429
			c4.764,3.68,9.883,6.873,15.283,9.533c4.209,2.104,9.327,0.404,11.441-3.801c2.114-4.204,0.425-9.326-3.774-11.449
			c-14.583-7.325-22.95-16.117-22.95-24.121v-38.519c8.364,6.338,17.627,11.392,27.483,14.995c2.846,1.103,6.066,0.602,8.441-1.315
			c2.376-1.917,3.547-4.957,3.071-7.972c-0.476-3.015-2.527-5.547-5.379-6.638c-21.05-8.109-33.617-18.879-33.617-28.817V89.47
			c22.865,18.19,66.739,29.996,119.467,29.996s96.602-11.807,119.467-29.996V128c0,9.938-12.567,20.708-33.617,28.817
			c-2.851,1.091-4.902,3.622-5.379,6.638c-0.476,3.015,0.694,6.056,3.07,7.972c2.376,1.917,5.595,2.418,8.442,1.315
			c9.856-3.603,19.12-8.657,27.483-14.995v38.519c0,8.004-8.367,16.796-22.95,24.121c-4.199,2.123-5.888,7.245-3.774,11.449
			c2.114,4.204,7.232,5.904,11.441,3.801c5.4-2.66,10.52-5.853,15.283-9.533v38.429c0,20.179-49.067,42.667-119.467,42.667
			S136.533,284.713,136.533,264.533z M68.267,494.933c-31.758,0-51.2-11.05-51.2-17.067v-27.883
			c15.98,7.578,33.521,11.283,51.2,10.817c17.679,0.467,35.22-3.239,51.2-10.817v27.883
			C119.467,483.883,100.025,494.933,68.267,494.933z M68.267,409.6c31.758,0,51.2,11.05,51.2,17.067s-19.442,17.067-51.2,17.067
			s-51.2-11.05-51.2-17.067S36.508,409.6,68.267,409.6z"/>
	</g>
</g>
<g>
</g>
<g>
</g>
<g>
</g>
<g>
</g>
<g>
</g>
<g>
</g>
<g>
</g>
<g>
</g>
<g>
</g>
<g>
</g>
<g>
</g>
<g>
</g>
<g>
</g>
<g>
</g>
<g>
</g>
</svg>
